<svg xmlns="http://www.w3.org/2000/svg" viewBox="0 0 399.14 406"><defs><style>.cls-1{fill:#749ec1;}</style></defs><g id="Layer_1" data-name="Layer 1"><path class="cls-1" d="M348.43,565.82a174.2,174.2,0,0,1,0-348.39q6.92,0,13.7.54A202.31,202.31,0,0,0,288,204C175.89,204,85,294.89,85,407s90.89,203,203,203a202.57,202.57,0,0,0,155.28-72.26A173.38,173.38,0,0,1,348.43,565.82Z" transform="translate(-85 -204)"/><path class="cls-1" d="M289.66,415.55c8.5-4.07,30.15-5.27,37.64-2.81-5.45-7.21-11-11.43-22.92-9.27C289.66,407,289.66,415.55,289.66,415.55Z" transform="translate(-85 -204)"/><path class="cls-1" d="M411.68,415.86c-8.49-4.06-30.15-5.26-37.64-2.81,5.45-7.2,11-11.42,22.92-9.27C411.68,407.32,411.68,415.86,411.68,415.86Z" transform="translate(-85 -204)"/><path class="cls-1" d="M382.5,515.88a39.08,39.08,0,0,1-14.78,8.33c-3.85,1.07-13.77,2.06-15.85-8.06,8.38-4.56,15.2-17.41,17.2-21.7,2.56-5.49,1.07-13.77-4-17.27s-13.74-.61-15.79,0c-2.05-.59-10.75-3.42-15.79,0s-6.59,11.78-4,17.27c2,4.29,8.82,17.14,17.2,21.7-2.08,10.12-12,9.13-15.85,8.06A39.16,39.16,0,0,1,316,515.88c-2.78-3.18-4.84,0-3.77,1.07s10.14,9.61,19.51,11.12c5.68,1,13.47.14,17.51-4.43,4,4.57,11.83,5.42,17.51,4.43,9.37-1.51,18.43-10,19.51-11.12S385.28,512.7,382.5,515.88Z" transform="translate(-85 -204)"/></g><g id="Layer_2" data-name="Layer 2"><path class="cls-1" d="M484.14,410.73c-10.1-11.85-28.3-31-28.3-31-3.38-5.07,4.65-18.6,4.65-18.6,1.24-.71-2.54-32.12-8-35.92-2.65-1.83-7.61,22.4-13.53,23.67-22,3.8-58.74-39.73-57.9-49.87.85-4.23,15.22-45.65,30-49,.82-.19,23.5,27.47,23.5,27.47s-18.85-41.41-26-42.68-40.57,45.64-39.72,57.05H329.9c.84-11.41-32.54-58.32-39.73-57.05s-26,42.68-26,42.68,22.67-27.66,23.5-27.47c14.79,3.38,29.16,44.8,30,49,.85,10.14-35.92,53.67-57.9,49.87-5.91-1.27-10.87-25.5-13.52-23.67-5.5,3.8-9.27,35.21-8,35.92,0,0,8,13.53,4.65,18.6,0,0-18.21,19.1-28.3,31,4.13,4.7,10.48,12.17,14.52,20.65,1.67,26.45,6,45.53,5.46,53.56,15.08-23.75,37.78,5.57,40,9.51,1.76-1.81,1.67-28.32-18.39-34.56,0,0-4.14-50.16-2.22-50.74l10.28-5.08c5-.79,11.29,13.08,12.15,17.93.57-2.39,5.8-61.06,32.12-63,23.25-1.25,28.22,2.34,34.88,20.3,3.28,19.88-3.81,40.27-6,40.59s6.39.95,12.08-6.66c5.68,7.61,14.29,7,12.07,6.66s-9.31-20.71-6-40.59c6.66-18,11.63-21.55,34.88-20.3,26.32,1.9,31.55,60.57,32.12,63,.85-4.85,7.18-18.72,12.15-17.93l10.28,5.08c1.92.58-2.22,50.74-2.22,50.74-20.06,6.24-20.16,32.75-18.4,34.56,2.18-3.94,24.88-33.26,40-9.51-.57-8,3.79-27.11,5.46-53.56C473.65,422.9,480,415.43,484.14,410.73Z" transform="translate(-85 -204)"/></g></svg>